<svg width="42" height="42" viewBox="0 0 42 42" fill="none" xmlns="http://www.w3.org/2000/svg">
<g id="facebook">
<path id="Vector" fill-rule="evenodd" clip-rule="evenodd" d="M2.25 5.25525C2.25 4.45821 2.56662 3.69381 3.13022 3.13022C3.69381 2.56662 4.45821 2.25 5.25525 2.25H36.7448C37.5418 2.25 38.3062 2.56662 38.8698 3.13022C39.4334 3.69381 39.75 4.45821 39.75 5.25525V36.7448C39.75 37.5418 39.4334 38.3062 38.8698 38.8698C38.3062 39.4334 37.5418 39.75 36.7448 39.75H5.25525C4.45821 39.75 3.69381 39.4334 3.13022 38.8698C2.56662 38.3062 2.25 37.5418 2.25 36.7448V5.25525ZM27.96 38.25V23.8815H32.8245L33.5527 18.282H27.96V14.7067C27.96 13.0852 28.4138 11.9805 30.759 11.9805L33.75 11.979V6.9705C33.2325 6.903 31.4572 6.75 29.3918 6.75C25.0793 6.75 22.1273 9.36 22.1273 14.1525V18.282H17.25V23.8815H22.1273V38.25H27.96Z" fill="white"/>
</g>
</svg>
