<svg width="37" height="42" viewBox="0 0 37 42" fill="none" xmlns="http://www.w3.org/2000/svg">
<path d="M15.9469 17.366C15.4691 17.6854 15.0589 18.0958 14.7398 18.5737C14.4206 19.0516 14.1987 19.5877 14.0867 20.1514C13.8606 21.2898 14.0959 22.4714 14.741 23.4363C15.3861 24.4012 16.388 25.0703 17.5264 25.2965C18.6648 25.5226 19.8464 25.2873 20.8113 24.6422C21.7762 23.9971 22.4453 22.9952 22.6715 21.8568C22.8976 20.7184 22.6623 19.5368 22.0172 18.5719C21.3721 17.607 20.3702 16.9379 19.2318 16.7117C18.0934 16.4856 16.9118 16.7209 15.9469 17.366ZM27.6199 11.7551C27.1934 11.3285 26.6766 10.9922 26.1105 10.7707C24.6258 10.1883 21.3855 10.2129 19.2937 10.2375C18.9574 10.2375 18.6457 10.2457 18.375 10.2457C18.1043 10.2457 17.7844 10.2457 17.4398 10.2375C15.348 10.2129 12.1242 10.1801 10.6395 10.7707C10.0734 10.9922 9.56484 11.3285 9.13008 11.7551C8.69531 12.1816 8.36719 12.6984 8.1457 13.2645C7.56328 14.7492 7.59609 17.9977 7.6125 20.0895C7.6125 20.4258 7.6207 20.7375 7.6207 21C7.6207 21.2625 7.6207 21.5742 7.6125 21.9105C7.59609 24.0023 7.56328 27.2508 8.1457 28.7355C8.36719 29.3016 8.70352 29.8102 9.13008 30.2449C9.55664 30.6797 10.0734 31.0078 10.6395 31.2293C12.1242 31.8117 15.3645 31.7871 17.4563 31.7625C17.7926 31.7625 18.1043 31.7543 18.375 31.7543C18.6457 31.7543 18.9656 31.7543 19.3102 31.7625C21.402 31.7871 24.6258 31.8199 26.1105 31.2293C26.6766 31.0078 27.1852 30.6715 27.6199 30.2449C28.0547 29.8184 28.3828 29.3016 28.6043 28.7355C29.1949 27.259 29.1621 24.027 29.1375 21.927C29.1375 21.5824 29.1293 21.2625 29.1293 20.9918C29.1293 20.7211 29.1293 20.4094 29.1375 20.0566C29.1621 17.9648 29.1949 14.7328 28.6043 13.248C28.3828 12.682 28.0465 12.1734 27.6199 11.7387V11.7551ZM22.1156 15.4055C23.5994 16.3975 24.6283 17.9384 24.976 19.6891C25.3236 21.4398 24.9616 23.2569 23.9695 24.7406C22.9775 26.2244 21.4366 27.2533 19.6859 27.601C17.9352 27.9486 16.1181 27.5866 14.6344 26.5945C13.8997 26.1038 13.2688 25.4733 12.7779 24.7388C12.2869 24.0043 11.9454 23.1803 11.7728 22.3138C11.6003 21.4473 11.6001 20.5554 11.7723 19.6888C11.9445 18.8223 12.2857 17.9982 12.7764 17.2635C13.2671 16.5288 13.8976 15.898 14.6321 15.407C15.3666 14.916 16.1906 14.5745 17.0571 14.4019C17.9236 14.2294 18.8155 14.2292 19.6821 14.4014C20.5486 14.5736 21.3727 14.9148 22.1074 15.4055H22.1156ZM24.5109 15.2988C24.2566 15.1266 24.0516 14.8805 23.9285 14.5934C23.8055 14.3062 23.7809 13.9945 23.8383 13.6828C23.8957 13.3711 24.0516 13.1004 24.2648 12.8789C24.4781 12.6574 24.7652 12.5098 25.0688 12.4523C25.3723 12.3949 25.6922 12.4195 25.9793 12.5426C26.2664 12.6656 26.5125 12.8625 26.6848 13.1168C26.857 13.3711 26.9473 13.6746 26.9473 13.9863C26.9473 14.1914 26.9062 14.3965 26.8324 14.5852C26.7586 14.7738 26.6355 14.9461 26.4961 15.0938C26.3566 15.2414 26.1762 15.3562 25.9875 15.4383C25.7988 15.5203 25.5938 15.5613 25.3887 15.5613C25.077 15.5613 24.7734 15.4711 24.5191 15.2988H24.5109ZM36.75 7.875C36.75 4.9793 34.3957 2.625 31.5 2.625H5.25C2.3543 2.625 0 4.9793 0 7.875V34.125C0 37.0207 2.3543 39.375 5.25 39.375H31.5C34.3957 39.375 36.75 37.0207 36.75 34.125V7.875ZM29.2852 31.9102C27.7512 33.4441 25.8891 33.9281 23.7891 34.0348C21.6234 34.1578 15.1266 34.1578 12.9609 34.0348C10.8609 33.9281 8.99883 33.4441 7.46484 31.9102C5.93086 30.3762 5.44687 28.5141 5.34844 26.4141C5.22539 24.2484 5.22539 17.7516 5.34844 15.5859C5.45508 13.4859 5.93086 11.6238 7.46484 10.0898C8.99883 8.55586 10.8691 8.07187 12.9609 7.97344C15.1266 7.85039 21.6234 7.85039 23.7891 7.97344C25.8891 8.08008 27.7512 8.55586 29.2852 10.0898C30.8191 11.6238 31.3031 13.4859 31.4016 15.5859C31.5246 17.7434 31.5246 24.232 31.4016 26.4059C31.2949 28.5059 30.8191 30.368 29.2852 31.902V31.9102Z" fill="white"/>
</svg>
